<?xml version="1.0" encoding="UTF-8"?>
<svg id="_Слой_2" xmlns="http://www.w3.org/2000/svg" version="1.1" viewBox="0 0 960 961.5">
  <!-- Generator: Adobe Illustrator 29.4.0, SVG Export Plug-In . SVG Version: 2.1.0 Build 152)  -->
  <defs>
    <style>
      .st0 {
        fill: #fbb040;
      }

      .st1 {
        opacity: 0;
      }
    </style>
  </defs>
  <g id="_Слой_6">
    <g>
      <g>
        <g id="_ухо" class="st1">
          <path d="M152.5,338.9l-45,12.4c-17.6,4.8-29.3,18.4-28.8,33.5,2,57.1,8.5,191.3,26.5,198.7,22.9,9.4,56.1,19,56.1,19l-8.8-263.5h0Z"/>
        </g>
        <g id="_ухо-2" class="st1">
          <path d="M807,338.9l45,12.4c17.6,4.8,29.3,18.4,28.8,33.5-2,57.1-8.5,191.3-26.5,198.7-22.9,9.4-56.1,19-56.1,19l8.8-263.5h0Z"/>
        </g>
      </g>
      <g id="_голова" class="st1">
        <ellipse cx="479.8" cy="448.6" rx="347.6" ry="354.6"/>
      </g>
      <g id="_контур_голова" class="st1">
        <ellipse cx="479.8" cy="448.6" rx="347.6" ry="354.6"/>
      </g>
      <g>
        <g class="st1">
          <path d="M417.9,247c77.2-8.8,335.3,7.3,369.3,130.1,18.2,65.8-20.5,215-60.4,256.9-112.4,118.1-387.1,120.9-497.1-3.9-33.8-38.4-63.6-159.4-61.8-220.3,3.6-120.5,188.5-155.8,250-162.8h0Z"/>
        </g>
        <g class="st1">
          <path d="M537.4,245c-77.2-8.8-331.1,9.3-365,132.1-18.2,65.8,20.5,215,60.4,256.9,112.4,118.1,387.1,120.9,497.1-3.9,33.8-38.4,63.6-159.4,61.8-220.3-3.6-120.5-192.8-157.8-254.3-164.9h0Z"/>
        </g>
      </g>
    </g>
    <g>
      <g id="_ухо-3">
        <path d="M95.2,341.8l-53.2,14.6c-20.8,5.7-34.6,21.7-34,39.5,2.3,67.4,10,225.7,31.2,234.4,27,11.1,66.2,22.4,66.2,22.4"/>
      </g>
      <g id="_ухо-4">
        <path d="M867.7,341.8l53.2,14.6c20.8,5.7,34.6,21.7,34,39.5-2.3,67.4-10,225.7-31.2,234.4-27,11.1-66.2,22.4-66.2,22.4"/>
      </g>
    </g>
    <g id="_голова-2">
      <ellipse cx="481.5" cy="471.3" rx="410.2" ry="418.5"/>
      <path d="M481.5,895.5c-56.2,0-110.7-11.2-162-33.4-49.5-21.4-94-52-132.2-90.9-38.2-39-68.2-84.3-89.1-134.8-21.7-52.3-32.7-107.8-32.7-165.1s11-112.8,32.7-165.1c20.9-50.5,50.9-95.9,89.1-134.8,38.2-39,82.7-69.6,132.2-90.9,51.3-22.1,105.8-33.4,162-33.4s110.7,11.2,162,33.4c49.5,21.4,94,52,132.2,90.9,38.2,39,68.2,84.3,89.1,134.8,21.7,52.3,32.7,107.8,32.7,165.1s-11,112.8-32.7,165.1c-20.9,50.5-50.9,95.9-89.1,134.8-38.2,39-82.7,69.6-132.2,90.9-51.3,22.1-105.8,33.4-162,33.4ZM481.5,58.5c-54.6,0-107.6,10.9-157.4,32.4-48.2,20.8-91.4,50.5-128.6,88.4-37.2,37.9-66.3,82-86.7,131.2-21.1,50.9-31.8,105-31.8,160.7s10.7,109.8,31.8,160.7c20.4,49.2,49.6,93.3,86.7,131.2,37.2,37.9,80.4,67.7,128.6,88.4,49.9,21.5,102.8,32.4,157.4,32.4s107.6-10.9,157.4-32.4c48.2-20.8,91.4-50.5,128.6-88.4,37.2-37.9,66.3-82,86.7-131.2,21.1-50.9,31.8-105,31.8-160.7s-10.7-109.8-31.8-160.7c-20.4-49.2-49.6-93.3-86.7-131.2-37.2-37.9-80.4-67.7-128.6-88.4-49.9-21.5-102.8-32.4-157.4-32.4Z"/>
    </g>
    <path class="st0" d="M830.6,430c0-2.9-.3-5.8-.6-8.7-.8-10.3-2.2-19.7-4.5-27.9-15.5-56-72.7-92.2-140.8-114.8-54.1-20.2-109.4-29.8-138.8-33.1-23.3-2.7-61-3.1-104.3.3-11.4.4-21.3,1-29.5,2-15.6,1.8-38.2,5.2-63.9,10.9-95.5,19.3-190.1,59.4-210.9,134.7-2.3,8.2-3.7,17.5-4.5,27.6-.3,2.9-.5,5.9-.6,9,0,2.5,0,5,0,7.7-.5,82.3,35.6,204.3,72.8,243.3,6.1,6.4,12.6,12.5,19.5,18.2,63.9,55.1,160.5,81.9,257,81.5,96.5.4,193.1-26.4,257-81.5,6.9-5.8,13.4-11.9,19.5-18.2,37.1-39,73.3-160.9,72.8-243.3,0-2.6,0-5.2,0-7.7h0Z"/>
  </g>
</svg>